# xmcd CD database file
#
# Track frame offsets:
#	150
#	11408
#	22381
#	36260
#	48080
#	59170
#	72041
#	84555
#	96617
#	107152
#	120474
#	131723
#	143813
#	154961
#	166021
#	176759
#	187570
#	198435
#
# Disc length: 2799 seconds
#
# Revision: 0
# Processed by: cddbd v1.5.1PL0 Copyright (c) Steve Scherf et al.
# Submitted via: Feurio! 1.66 - http://www.feurio.com
#
DISCID=fa0aed12
DTITLE=Various Artist - Honky Tonk Country Music 1945-1953 CD1
DYEAR=1900
DGENRE=Country
TTITLE0=Ernest Tubb - I'm Tired Of You
TTITLE1=Lefty Frizzell - Lost Love Blues
TTITLE2=Lefty Frizzell - Run'em Off
TTITLE3=Hank Williams - Settin' The Woods On Fire
TTITLE4=Hank Williams - I'll Never Get Out Of This World Alive
TTITLE5=Al Dexter - Walkin' With The Blues
TTITLE6=Webb Pierce - Back Street Affair
TTITLE7=Ray Price - The Road Of No Return
TTITLE8=Carl Smith - Trademark
TTITLE9=Little Jimmy Dickens - Country Boy
TTITLE10=Ted Daffan - Bluest Blues
TTITLE11=Jess Willard - Honky Tonk Hardwood Floor
TTITLE12=Webb Pierce  - I'm Walking The Dog
TTITLE13=Ray Price  - I'll Be There
TTITLE14=Eddie Kirk - Drifting Texas Sand
TTITLE15=Merle Travis - Done Rovin'
TTITLE16=Leon Payne - I'm A Lone Wolf
TTITLE17=Carl Smith - Back Up Buddy
EXTD=
EXTT0=
EXTT1=
EXTT2=
EXTT3=
EXTT4=
EXTT5=
EXTT6=
EXTT7=
EXTT8=
EXTT9=
EXTT10=
EXTT11=
EXTT12=
EXTT13=
EXTT14=
EXTT15=
EXTT16=
EXTT17=
PLAYORDER=
